<svg width="78" height="78" xmlns="http://www.w3.org/2000/svg">

 <g>
  <title>background</title>
  <rect fill="none" id="canvas_background" height="402" width="582" y="-1" x="-1"/>
 </g>
 <g>
  <title>Layer 1</title>
  <path id="svg_1" fill="#808080" d="m75,15l0,-4.5c0,-0.829 -0.672,-1.5 -1.5,-1.5l-28.5,0c-2.448,0 -4.627,1.18 -5.996,3c-0.002,0 -0.003,0 -0.004,0s-0.002,0 -0.004,0c-1.369,-1.82 -3.548,-3 -5.996,-3l-28.5,0c-0.828,0 -1.5,0.671 -1.5,1.5l0,4.5l-3,0l0,51l32.299,0c1.641,1.84 4.041,3 6.701,3s5.059,-1.16 6.699,-3l32.301,0l0,-51l-3,0zm-69,-3l27,0c2.481,0 4.5,2.019 4.5,4.5l0,28.666c0,0.829 0.672,1.5 1.5,1.5s1.5,-0.671 1.5,-1.5l0,-28.666c0,-2.481 2.019,-4.5 4.5,-4.5l27,0l0,48l-27,0c-2.447,0 -4.627,1.18 -5.996,3c-0.001,0 -0.003,0 -0.004,0s-0.003,0 -0.004,0c-1.369,-1.82 -3.549,-3 -5.996,-3l-27,0l0,-48z"/>
 </g>
</svg>